<?xml version="1.0" encoding="UTF-8"?>
<svg width="14px" height="13px" viewBox="0 0 14 13" version="1.1" xmlns="http://www.w3.org/2000/svg" xmlns:xlink="http://www.w3.org/1999/xlink">
    <title>17887C8B-2EE4-4DE2-99EA-63BB105E44BB</title>
    <g id="Test" stroke="none" stroke-width="1" fill="none" fill-rule="evenodd">
        <g id="List-of-projects" transform="translate(-344.000000, -159.000000)" fill="#FFCC6B">
            <g id="card" transform="translate(8.000000, 150.000000)">
                <path d="M343,20 L340.09119,21.5292518 C339.602346,21.7862527 338.997718,21.5983061 338.740718,21.1094615 C338.638379,20.9148011 338.603064,20.691833 338.640241,20.4750754 L339.195774,17.236068 L339.195774,17.236068 L336.842497,14.9421902 C336.447014,14.556689 336.438921,13.9235757 336.824423,13.5280922 C336.977931,13.3706085 337.179074,13.2681213 337.396711,13.2364968 L340.648859,12.763932 L340.648859,12.763932 L342.103264,9.81698575 C342.347686,9.32173209 342.947312,9.11839309 343.442566,9.36281539 C343.639778,9.46014562 343.799406,9.61977315 343.896736,9.81698575 L345.351141,12.763932 L345.351141,12.763932 L348.603289,13.2364968 C349.149834,13.3159144 349.528516,13.8233573 349.449098,14.3699022 C349.417473,14.5875392 349.314986,14.7886816 349.157503,14.9421902 L346.804226,17.236068 L346.804226,17.236068 L347.359759,20.4750754 C347.45312,21.0194118 347.087532,21.5363677 346.543196,21.6297287 C346.326438,21.6669056 346.10347,21.6315909 345.90881,21.5292518 L343,20 L343,20 Z" id="star-starred"></path>
            </g>
        </g>
    </g>
</svg>