<?xml version="1.0" encoding="UTF-8"?>
<svg width="24px" height="24px" viewBox="0 0 24 24" version="1.1" xmlns="http://www.w3.org/2000/svg" xmlns:xlink="http://www.w3.org/1999/xlink">
    <title>31A1212C-9035-418F-B3BE-2CDF83EF5F3F</title>
    <g id="Test" stroke="none" stroke-width="1" fill="none" fill-rule="evenodd">
        <g id="List-of-projects---swipe" transform="translate(-321.000000, -388.000000)" fill="#FFFFFF">
            <g id="swipe-action" transform="translate(299.000000, 366.000000)">
                <g id="card-star-ic" transform="translate(22.000000, 22.000000)">
                    <path d="M12.2637176,18.7406716 L7.00376669,21.5059914 C6.51492211,21.7629922 5.91029495,21.5750457 5.65329414,21.0862011 C5.55095507,20.8915406 5.5156404,20.6685725 5.55281724,20.4518149 L6.55737847,14.5947735 L2.30198882,10.4467938 C1.90650524,10.0612926 1.89841294,9.42817933 2.28391415,9.03269575 C2.43742275,8.87521211 2.63856517,8.77272494 2.8562022,8.74110042 L8.73700605,7.8865696 L11.3669815,2.55765732 C11.6114038,2.06240366 12.2110296,1.85906466 12.7062833,2.10348696 C12.9034959,2.20081719 13.0631234,2.36044472 13.1604536,2.55765732 L15.7904291,7.8865696 L21.6712329,8.74110042 C22.2177778,8.82051804 22.5964593,9.32796089 22.5170416,9.87450576 C22.4854171,10.0921428 22.3829299,10.2932852 22.2254463,10.4467938 L17.9700567,14.5947735 L18.9746179,20.4518149 C19.0679789,20.9961514 18.7023911,21.5131073 18.1580546,21.6064683 C17.941297,21.6436451 17.7183289,21.6083305 17.5236684,21.5059914 L12.2637176,18.7406716 Z" id="icons/card-star-ic"></path>
                </g>
            </g>
        </g>
    </g>
</svg>